<?xml version="1.0" encoding="iso-8859-1"?>
<!-- Generator: Adobe Illustrator 19.0.0, SVG Export Plug-In . SVG Version: 6.00 Build 0)  -->
<svg version="1.1" id="Layer_1" xmlns="http://www.w3.org/2000/svg" xmlns:xlink="http://www.w3.org/1999/xlink" x="0px" y="0px"
	 viewBox="0 0 512 512" style="enable-background:new 0 0 512 512;" xml:space="preserve">
<g>
	<g>
		<path d="M511.197,500.996L307.188,92.978L262.801,4.203C261.513,1.627,258.88,0,256,0c-2.88,0-5.513,1.627-6.801,4.203
			l-44.387,88.775L0.803,500.996c-1.179,2.357-1.052,5.156,0.333,7.398C2.52,510.635,4.968,512,7.604,512h159.219h31.676h41.667
			h31.675h46.557h31.675h154.323c2.636,0,5.083-1.365,6.468-3.606C512.249,506.152,512.376,503.353,511.197,500.996z M256,24.607
			l35.134,70.27l-13.245,13.246c-0.314,0.312-0.656,0.353-0.912,0.374c-0.243-0.001-0.599-0.07-0.906-0.387l-8.023-8.267
			c-2.712-2.794-6.234-4.504-10.053-4.909c-0.545-0.058-1.097-0.089-1.654-0.093c-0.042,0-0.084,0-0.127,0
			c-0.108,0-0.215,0.013-0.322,0.016c-4.264,0.045-8.291,1.773-11.329,4.812l-8.552,8.551c-0.001,0-0.001,0.001-0.001,0.001
			c-0.309,0.309-0.66,0.373-0.902,0.373c-0.24,0-0.593-0.065-0.902-0.374l-13.339-13.342L256,24.607z M168.632,384.363
			c-1.341-2.414-3.886-3.91-6.648-3.91h-13.159l33.836-63.333l17.826,33.366c1.086,2.033,2.966,3.366,5.051,3.832l-22.791,36.627
			c-1.458,2.345-1.532,5.296-0.191,7.709c1.341,2.414,3.886,3.911,6.648,3.911h19.711l-32.361,52.008h-47.002l38.889-62.5
			C169.899,389.728,169.972,386.777,168.632,384.363z M205.261,327.148c1.232,0.823,2.689,1.296,4.22,1.296h12.156l-8.438,13.561
			L205.261,327.148z M190.895,496.792h-16.468v-27.01h16.468V496.792z M232.562,496.792h-26.459v-27.01h26.459V496.792z
			 M264.237,496.792h-16.467v-30.037h16.467V496.792z M310.794,496.792h-31.35v-27.01h31.35V496.792z M196.347,451.548l32.71-52.569
			c1.458-2.345,1.532-5.296,0.191-7.709c-1.341-2.414-3.886-3.911-6.648-3.911h-19.71l38.89-62.5
			c1.459-2.344,1.532-5.296,0.192-7.709c-1.341-2.414-3.886-3.911-6.648-3.911h-13.16L256,249.903l33.837,63.334h-13.16
			c-2.762,0-5.306,1.497-6.648,3.911c-1.34,2.414-1.267,5.365,0.191,7.709l38.89,62.5h-19.711c-2.762,0-5.306,1.497-6.648,3.911
			c-1.34,2.414-1.267,5.365,0.191,7.709l32.71,52.569H196.347z M342.469,496.792h-16.467v-27.01h16.467V496.792z M335.446,454.574
			l-32.361-52.008h19.711c2.762,0,5.306-1.497,6.648-3.911c1.34-2.414,1.267-5.365-0.191-7.709l-18.54-29.795l23.523-44.03
			l33.837,63.333h-13.16c-2.762,0-5.306,1.497-6.648,3.911c-1.34,2.413-1.267,5.364,0.191,7.709l38.89,62.5H335.446z
			 M357.677,496.792v-27.01h43.356c2.762,0,5.306-1.497,6.648-3.911c1.34-2.414,1.267-5.365-0.191-7.709l-38.89-62.5h12.156
			c2.673,0,5.147-1.402,6.522-3.695s1.445-5.136,0.186-7.493l-46.52-87.073c-1.323-2.475-3.901-4.021-6.707-4.021
			c-2.805,0-5.385,1.545-6.707,4.021l-26.093,48.84l-11.072-17.795h12.156c2.673,0,5.147-1.402,6.522-3.695s1.445-5.136,0.186-7.493
			l-46.52-87.074c-1.323-2.475-3.901-4.021-6.707-4.021c-2.805,0-5.385,1.545-6.707,4.021l-46.52,87.074
			c-0.597,1.118-0.886,2.347-0.887,3.574l-12.518-23.431c-1.323-2.475-3.901-4.021-6.707-4.021s-5.385,1.545-6.707,4.021
			l-46.519,87.073c-1.259,2.357-1.189,5.201,0.186,7.493c1.374,2.291,3.85,3.695,6.522,3.695h12.155l-38.889,62.5
			c-1.458,2.345-1.532,5.296-0.191,7.709c1.341,2.414,3.886,3.911,6.648,3.911h43.355v27.011H19.907l193.788-387.577l9.755,9.756
			c0.389,0.389,0.795,0.756,1.215,1.101c2.938,2.414,6.589,3.727,10.442,3.727c4.404,0,8.544-1.715,11.655-4.828l8.553-8.551
			c0.312-0.312,0.673-0.375,0.911-0.374c0.243,0.001,0.599,0.07,0.907,0.387l8.022,8.267c3.099,3.193,7.256,4.97,11.706,5.003
			c0.043,0,0.085,0,0.128,0c3.776,0,7.35-1.268,10.259-3.593c0.055-0.045,0.116-0.081,0.17-0.127
			c0.423-0.347,0.831-0.716,1.224-1.108l9.662-9.662l193.787,387.578H357.677z"/>
	</g>
</g>
<g>
</g>
<g>
</g>
<g>
</g>
<g>
</g>
<g>
</g>
<g>
</g>
<g>
</g>
<g>
</g>
<g>
</g>
<g>
</g>
<g>
</g>
<g>
</g>
<g>
</g>
<g>
</g>
<g>
</g>
</svg>
